<svg width="5" height="9" viewBox="0 0 5 9" fill="none" xmlns="http://www.w3.org/2000/svg">
<path d="M3.64843 8.75078C3.55506 8.7511 3.4628 8.73049 3.37844 8.69047C3.29408 8.65046 3.21975 8.59204 3.16093 8.51953L0.14218 4.76953C0.0502539 4.6577 0 4.51742 0 4.37266C0 4.22789 0.0502539 4.08762 0.14218 3.97578L3.26718 0.225783C3.37327 0.0981473 3.52571 0.017882 3.69098 0.00264469C3.85624 -0.0125926 4.02079 0.0384461 4.14843 0.144533C4.27607 0.250619 4.35633 0.403064 4.37157 0.56833C4.38681 0.733597 4.33577 0.898147 4.22968 1.02578L1.43593 4.37578L4.13593 7.72578C4.21236 7.81752 4.26091 7.92924 4.27583 8.0477C4.29075 8.16617 4.27143 8.28644 4.22015 8.39427C4.16886 8.5021 4.08776 8.59298 3.98644 8.65616C3.88512 8.71934 3.76783 8.75218 3.64843 8.75078Z" fill="black"/>
</svg>
