<svg width="5" height="9" viewBox="0 0 5 9" fill="none" xmlns="http://www.w3.org/2000/svg">
<path d="M0.725776 4.22806e-05C0.819147 -0.000275301 0.911404 0.0203326 0.995766 0.0603507C1.08013 0.100369 1.15445 0.15878 1.21328 0.231293L4.23203 3.98129C4.32395 4.09312 4.37421 4.2334 4.37421 4.37817C4.37421 4.52293 4.32395 4.66321 4.23203 4.77504L1.10703 8.52504C1.00094 8.65268 0.848495 8.73294 0.683229 8.74818C0.517962 8.76342 0.353412 8.71238 0.225776 8.60629C0.0981407 8.50021 0.0178756 8.34776 0.00263829 8.18249C-0.0125991 8.01723 0.0384397 7.85268 0.144526 7.72504L2.93828 4.37504L0.238276 1.02504C0.161849 0.933301 0.113301 0.821589 0.098376 0.703121C0.083451 0.584653 0.102774 0.464388 0.154059 0.356558C0.205344 0.248728 0.286444 0.157846 0.387763 0.0946649C0.489082 0.031484 0.606379 -0.00135198 0.725776 4.22806e-05Z" fill="black"/>
</svg>
