<svg width="6" height="3" viewBox="0 0 6 3" fill="none" xmlns="http://www.w3.org/2000/svg">
<path d="M5.25047 0.483851C5.25066 0.546098 5.23829 0.607603 5.21428 0.663844C5.19027 0.720085 5.15523 0.769634 5.11172 0.808851L2.86172 2.82135C2.79462 2.88263 2.71045 2.91614 2.62359 2.91614C2.53674 2.91614 2.45257 2.88263 2.38547 2.82135L0.13547 0.738017C0.0588883 0.667293 0.0107291 0.565663 0.0015867 0.455486C-0.0075557 0.345308 0.0230675 0.235608 0.0867195 0.150517C0.150371 0.0654271 0.241838 0.0119171 0.340998 0.0017588C0.440158 -0.00839927 0.538888 0.0256262 0.615469 0.0963506L2.62547 1.95885L4.63547 0.158851C4.69051 0.107899 4.75754 0.0755339 4.82862 0.0655842C4.8997 0.0556343 4.97186 0.0685163 5.03656 0.102706C5.10126 0.136896 5.15579 0.190963 5.1937 0.258509C5.2316 0.326055 5.25131 0.404253 5.25047 0.483851Z" fill="black"/>
</svg>
