<svg width="16" height="18" viewBox="0 0 16 18" fill="none" xmlns="http://www.w3.org/2000/svg">
<path d="M15.8333 3.75C15.8333 3.95411 15.7584 4.15111 15.6227 4.30364C15.4871 4.45617 15.3002 4.55362 15.0975 4.5775L15 4.58333H14.2958L13.27 15.0167C13.2141 15.5828 12.9497 16.1079 12.5282 16.4899C12.1066 16.8719 11.558 17.0834 10.9892 17.0833H4.84417C4.27529 17.0834 3.72673 16.8719 3.30517 16.4899C2.88361 16.1079 2.61919 15.5828 2.56333 15.0167L1.5375 4.58333H0.833333C0.612319 4.58333 0.400358 4.49554 0.244078 4.33926C0.0877973 4.18298 0 3.97101 0 3.75C0 3.52899 0.0877973 3.31703 0.244078 3.16074C0.400358 3.00446 0.612319 2.91667 0.833333 2.91667H5C5 2.53364 5.07544 2.15437 5.22202 1.80051C5.36859 1.44664 5.58343 1.12511 5.85427 0.854272C6.12511 0.583434 6.44664 0.368594 6.80051 0.222018C7.15437 0.0754418 7.53364 0 7.91667 0C8.29969 0 8.67896 0.0754418 9.03282 0.222018C9.38669 0.368594 9.70822 0.583434 9.97906 0.854272C10.2499 1.12511 10.4647 1.44664 10.6113 1.80051C10.7579 2.15437 10.8333 2.53364 10.8333 2.91667H15C15.221 2.91667 15.433 3.00446 15.5893 3.16074C15.7455 3.31703 15.8333 3.52899 15.8333 3.75ZM9.79167 6.45833C9.64063 6.45834 9.49471 6.51304 9.38089 6.61231C9.26707 6.71158 9.19304 6.84871 9.1725 6.99833L9.16667 7.08333V12.9167L9.1725 13.0017C9.19308 13.1513 9.26713 13.2883 9.38095 13.3876C9.49477 13.4868 9.64066 13.5415 9.79167 13.5415C9.94267 13.5415 10.0886 13.4868 10.2024 13.3876C10.3162 13.2883 10.3902 13.1513 10.4108 13.0017L10.4167 12.9167V7.08333L10.4108 6.99833C10.3903 6.84871 10.3163 6.71158 10.2024 6.61231C10.0886 6.51304 9.9427 6.45834 9.79167 6.45833ZM6.04167 6.45833C5.89063 6.45834 5.74471 6.51304 5.63089 6.61231C5.51707 6.71158 5.44304 6.84871 5.4225 6.99833L5.41667 7.08333V12.9167L5.4225 13.0017C5.44308 13.1513 5.51713 13.2883 5.63095 13.3876C5.74477 13.4868 5.89066 13.5415 6.04167 13.5415C6.19267 13.5415 6.33856 13.4868 6.45238 13.3876C6.5662 13.2883 6.64025 13.1513 6.66083 13.0017L6.66667 12.9167V7.08333L6.66083 6.99833C6.64029 6.84871 6.56626 6.71158 6.45244 6.61231C6.33862 6.51304 6.1927 6.45834 6.04167 6.45833ZM7.91667 1.66667C7.58514 1.66667 7.2672 1.79836 7.03278 2.03278C6.79836 2.2672 6.66667 2.58515 6.66667 2.91667H9.16667C9.16667 2.58515 9.03497 2.2672 8.80055 2.03278C8.56613 1.79836 8.24819 1.66667 7.91667 1.66667Z" fill="#EE2B00"/>
</svg>
