<svg width="13" height="15" viewBox="0 0 13 15" fill="none" xmlns="http://www.w3.org/2000/svg">
<path d="M10.5287 10.5284L9.68788 11.3599C9.06809 11.9677 8.26413 12.7497 7.27529 13.7059C6.9781 13.9933 6.58087 14.1539 6.16746 14.1539C5.75406 14.1539 5.35683 13.9933 5.05963 13.7059L2.58684 11.3004C2.27588 10.9951 2.01592 10.738 1.80625 10.5284C0.943762 9.6658 0.356413 8.56686 0.118476 7.37051C-0.11946 6.17415 0.00270166 4.9341 0.469515 3.80717C0.936328 2.68024 1.72683 1.71704 2.74105 1.03937C3.75527 0.361704 4.94767 0 6.16746 0C7.38725 0 8.57965 0.361704 9.59387 1.03937C10.6081 1.71704 11.3986 2.68024 11.8654 3.80717C12.3322 4.9341 12.4544 6.17415 12.2164 7.37051C11.9785 8.56686 11.3912 9.6658 10.5287 10.5284ZM7.93829 6.36194C7.93829 5.89228 7.75173 5.44186 7.41963 5.10977C7.08753 4.77767 6.63712 4.5911 6.16746 4.5911C5.69781 4.5911 5.24739 4.77767 4.91529 5.10977C4.5832 5.44186 4.39663 5.89228 4.39663 6.36194C4.39663 6.83159 4.5832 7.28201 4.91529 7.6141C5.24739 7.9462 5.69781 8.13277 6.16746 8.13277C6.63712 8.13277 7.08753 7.9462 7.41963 7.6141C7.75173 7.28201 7.93829 6.83159 7.93829 6.36194Z" fill="#056EA1"/>
</svg>
