<svg width="23" height="26" viewBox="0 0 23 26" fill="none" xmlns="http://www.w3.org/2000/svg">
<path d="M22.4936 16.0064L20.125 13.6378V10.5C20.1223 8.33161 19.3156 6.24124 17.8611 4.63311C16.4065 3.02498 14.4072 2.01332 12.25 1.79375V0H10.5V1.79375C8.34275 2.01332 6.34354 3.02498 4.88895 4.63311C3.43436 6.24124 2.62771 8.33161 2.625 10.5V13.6378L0.256375 16.0064C0.0922693 16.1704 4.95577e-05 16.393 0 16.625V19.25C0 19.4821 0.0921872 19.7046 0.256282 19.8687C0.420376 20.0328 0.642936 20.125 0.875 20.125H7V21C7 22.1603 7.46094 23.2731 8.28141 24.0936C9.10188 24.9141 10.2147 25.375 11.375 25.375C12.5353 25.375 13.6481 24.9141 14.4686 24.0936C15.2891 23.2731 15.75 22.1603 15.75 21V20.125H21.875C22.1071 20.125 22.3296 20.0328 22.4937 19.8687C22.6578 19.7046 22.75 19.4821 22.75 19.25V16.625C22.75 16.393 22.6577 16.1704 22.4936 16.0064ZM14 21C14 21.6962 13.7234 22.3639 13.2312 22.8562C12.7389 23.3484 12.0712 23.625 11.375 23.625C10.6788 23.625 10.0111 23.3484 9.51884 22.8562C9.02656 22.3639 8.75 21.6962 8.75 21V20.125H14V21Z" fill="black"/>
</svg>
